<svg width="141" height="35" viewBox="0 0 141 35" fill="none" xmlns="http://www.w3.org/2000/svg">
<g clip-path="url(#clip0_45_493)">
<path d="M140.969 12.8045C140.62 11.6642 139.571 10.3178 138.738 9.74757C138.35 9.4826 137.393 8.92394 136.377 8.73167C135.476 8.56108 133.712 8.54503 132.708 8.83316C130.11 9.57872 128.549 11.8171 127.452 15.7267C127.456 11.1117 127.466 8.73783 127.466 8.73783C124.121 10.0834 118.561 13.1266 118.561 10.3973C118.561 11.8116 118.922 25.7735 118.738 28.2627C118.58 30.3775 118.208 32.046 117.625 33.271C117.483 33.4885 117.361 33.6932 117.277 33.8818H117.296H128.762H128.781C128.753 33.828 128.725 33.7689 128.698 33.7117C127.907 31.6631 127.492 28.1173 127.451 23.0695C127.451 22.7925 127.565 18.3579 127.598 18.1262C128.138 15.9314 129.474 12.3915 131.154 11.6476C133.537 10.5917 135.434 12.3265 135.721 14.2008C135.755 14.4226 135.843 14.9745 135.843 14.9745C140.969 12.8045 140.969 12.8045 140.969 12.8045Z" fill="#C9635F"/>
<path d="M83.3948 13.1841C81.6189 16.9616 92.6445 11.7103 92.6445 11.7103C88.2018 9.43107 84.7061 10.3948 83.3948 13.1841Z" fill="#C9635F"/>
<path d="M92.2168 26.9619C92.2503 28.2819 92.3851 29.5895 92.6215 30.8842C92.8572 32.1792 93.1608 33.179 93.5321 33.8825H82.0464C82.8221 32.6258 83.3027 30.7523 83.4885 28.2632C83.6735 25.774 83.5654 17.3875 83.5654 15.9732C83.5654 18.3224 88.8725 15.6592 92.2165 14.3137C92.2165 14.3137 92.1826 25.642 92.2168 26.9619Z" fill="#C9635F"/>
<path d="M103.083 24.9741H103.44C114.542 24.9741 117.559 17.8443 114.484 13.4946C112.733 11.0182 109.497 10.302 106.508 10.302C104.581 10.302 102.804 10.7431 101.176 11.6241C99.5483 12.5055 98.2438 13.6529 97.2649 15.0661C96.3699 16.3568 94.9244 18.9979 95.1562 23.7233C95.2213 25.0525 95.673 27.1767 96.7117 28.8139C97.7494 30.4523 99.8968 32.1871 101.163 32.7904C104.923 34.583 108.561 34.5125 112.082 33.6008L115.576 28.6868C112.517 30.0531 105.682 30.9719 103.083 24.9741ZM102.837 21.1054C103.118 19.8636 103.685 18.4461 104.538 16.8542C105.353 15.243 106.191 13.9715 107.054 13.0396C107.917 12.1079 108.552 11.7489 108.959 11.9623C109.367 12.1762 109.425 12.8989 109.134 14.1318C108.843 15.3647 108.281 16.7863 107.447 18.3975C106.614 19.9894 105.765 21.2565 104.902 22.1976C104.039 23.1395 103.404 23.5033 102.997 23.2891C102.61 23.0758 102.556 22.3483 102.837 21.1054Z" fill="#C9635F"/>
<path d="M37.528 32.8867C36.9663 32.8454 36.4694 32.557 36.1668 32.0958C35.7261 31.4246 35.8557 30.6636 35.971 30.273C36.3383 28.5087 37.3793 27.2112 38.1952 26.4292C38.3012 26.3274 38.4102 26.2289 38.5207 26.1332C38.4886 25.5635 38.4653 24.9318 38.451 24.239C38.2532 24.1916 38.0638 24.1414 37.8822 24.0726C37.3595 23.8747 36.9872 23.5505 36.7745 23.1079C36.5384 22.6344 36.523 22.0882 36.7324 21.5632C36.7761 21.4529 36.8325 21.3461 36.9 21.2447C37.2421 20.6896 37.8832 20.2276 38.4215 19.9111C38.4216 19.3599 38.4221 18.7984 38.4225 18.235C38.4225 18.1972 38.4171 18.1621 38.4161 18.125C38.4161 17.1139 38.4161 16.5543 38.4161 16.4567C38.4161 14.9036 38.196 13.5613 37.7583 12.4295C37.3193 11.2986 36.7629 10.4539 36.0885 9.89672C35.4134 9.3395 34.6631 8.9518 33.8369 8.7316C33.01 8.51251 32.2092 8.46169 31.4336 8.57975C30.6571 8.69845 29.9662 8.94296 29.3589 9.31423C28.1107 10.0574 27.0899 11.2312 26.2978 12.8347C25.505 14.439 24.8053 16.4567 24.1979 18.888C24.1979 18.5841 24.1979 18.1535 24.1979 17.5963C24.1979 17.0391 24.1979 16.6592 24.1979 16.4567C24.1979 14.9036 23.978 13.5613 23.5404 12.4295C23.1014 11.2986 22.5447 10.4539 21.8706 9.89672C21.1954 9.3395 20.4451 8.9518 19.6191 8.7316C18.7919 8.51251 17.9912 8.46169 17.2155 8.57975C16.4392 8.69845 15.7309 8.94296 15.0906 9.31423C13.0694 10.5283 11.4348 13.4268 10.1878 18.0074C10.1918 13.3925 10.2011 8.7378 10.2011 8.7378C6.85704 10.0834 1.29661 13.1266 1.29661 10.3973C1.29661 11.8116 1.6581 25.7735 1.47313 28.2627C1.31515 30.3775 0.943667 32.046 0.359952 33.271C0.217992 33.4884 0.0965001 33.6931 0.012207 33.8819H0.0310377H11.498H11.5169C11.4885 33.828 11.461 33.769 11.4334 33.7117C10.6431 31.663 10.2275 28.1173 10.1868 23.0695C10.1865 22.7924 10.1865 22.5066 10.1864 22.2127C10.2515 21.9166 10.3012 21.6523 10.3343 21.4206C10.8738 19.2259 11.4303 17.487 12.0043 16.2033C12.5775 14.9201 13.2351 14.2958 13.9777 14.3289C14.652 14.397 15.1325 15.3675 15.4196 17.2417C15.4534 17.4635 15.4928 17.6877 15.5352 17.9143C15.6517 21.4388 15.6435 26.4771 15.5118 28.252C15.3258 30.7409 14.8453 32.6142 14.0695 33.8711H14.4413C14.4388 33.8742 14.4352 33.8787 14.4329 33.8818H25.5138C25.5122 33.8783 25.5101 33.8745 25.5081 33.8711H25.5554C25.1839 33.1674 24.8804 32.1683 24.6447 30.8727C24.4084 29.5778 24.2733 28.2706 24.24 26.9507C24.2307 26.5889 24.2265 25.0575 24.2253 23.0246C24.3509 22.4614 24.4771 21.9251 24.6033 21.4204C25.1093 19.2258 25.6573 17.4869 26.2477 16.2031C26.8376 14.92 27.4873 14.2957 28.1957 14.3288C28.927 14.3856 29.4345 15.4732 29.7204 17.5838C29.8482 21.1165 29.8443 26.4297 29.708 28.2628C29.5221 30.7517 29.0416 32.6253 28.2658 33.8819H39.7516C39.667 33.7221 39.5867 33.545 39.5092 33.3543C39.3942 33.0355 39.2856 32.6575 39.1832 32.2207C38.5955 32.6416 38.1978 32.8913 37.6471 32.8913C37.6078 32.8913 37.5675 32.8898 37.528 32.8867Z" fill="#C9635F"/>
<path d="M86.8242 1.13148C86.4313 0.874791 85.4794 0.307807 84.4634 0.115582C83.5622 -0.0550119 81.8037 -0.0507355 80.7942 0.217039C78.7969 0.746996 76.6358 1.68055 75.5387 5.59002C75.5426 0.975071 75.5518 0.121747 75.5518 0.121747C72.2078 1.46718 66.6476 4.5105 66.6476 1.78122C66.6476 2.36519 66.7093 6.55684 66.7685 11.4527C67.0591 12.0027 67.2933 12.7028 67.356 13.5736C67.3599 13.6292 67.3631 13.6854 67.3656 13.7423C67.3659 13.7494 67.3662 13.7566 67.3665 13.7637C67.3685 13.8128 67.37 13.8625 67.371 13.9126C67.3712 13.9222 67.3715 13.9318 67.3716 13.9414C67.3732 14.0541 67.3719 14.1694 67.3678 14.2874C67.3672 14.3007 67.3668 14.3142 67.3662 14.3276C67.3642 14.3776 67.3615 14.428 67.3583 14.4788C67.3577 14.4886 67.3573 14.4982 67.3566 14.508C67.3528 14.5674 67.348 14.6274 67.3425 14.6881C67.3414 14.7011 67.3399 14.7142 67.3387 14.7274C67.3341 14.776 67.329 14.825 67.3233 14.8745C67.3212 14.8914 67.3193 14.9084 67.3173 14.9253C67.3098 14.9873 67.3018 15.0495 67.2927 15.1128C67.2821 15.186 67.2702 15.2586 67.2574 15.3308C67.169 15.8245 67.0261 16.293 66.8273 16.7393C66.8351 17.5101 66.8421 18.2734 66.8482 19.0192C67.4201 19.1811 67.9029 19.3742 68.2826 19.5526C68.7856 19.7889 69.9713 20.4124 70.4838 21.2451C70.5518 21.3468 70.6085 21.4543 70.6529 21.5664C70.8608 22.0902 70.8452 22.635 70.6099 23.1077C70.3971 23.5504 70.0248 23.8748 69.5021 24.0727C69.2612 24.164 69.0059 24.2227 68.736 24.2851C68.362 24.3713 67.9384 24.4691 67.4599 24.6688C67.3835 24.7072 67.2192 24.798 67.0085 24.9172C67.7518 25.2597 68.5185 25.7867 69.1888 26.4293C70.0047 27.2115 71.0459 28.509 71.4133 30.2733C71.5283 30.664 71.6582 31.425 71.2175 32.0959C70.9146 32.5572 70.4179 32.8455 69.8545 32.8871C69.8167 32.8899 69.7768 32.8914 69.7374 32.8914C69.7371 32.8914 69.7371 32.8914 69.7366 32.8914C69.1286 32.8914 68.7083 32.5877 68.0109 32.0844C67.6098 31.7948 67.0619 31.3995 66.4401 31.0401C66.2527 31.9003 66.0095 32.644 65.7107 33.2713C65.569 33.4887 65.4473 33.6934 65.3633 33.882H65.3821H76.8489H76.8677C76.8392 33.8281 76.8119 33.7691 76.7841 33.7119C76.0365 31.7739 75.6244 20.7855 75.5474 15.331L81.0752 15.3324V12.0056V11.9867C80.8813 12.2624 79.3467 13.2911 77.234 13.4493C76.8375 13.4788 76.2622 13.5014 75.5527 13.5186C75.585 11.7653 75.6593 8.16862 75.6849 7.98962C76.2245 5.79485 77.1689 3.81743 78.8294 3.032C81.5084 1.7649 83.5207 3.71025 83.8077 5.58457C83.8419 5.80647 83.9287 6.3582 83.9287 6.3582C89.0546 4.1883 89.0546 4.1883 89.0546 4.1883C88.7069 3.04792 87.5476 1.60368 86.8242 1.13148Z" fill="#C9635F"/>
<path d="M52.1587 9.77688C52.2217 9.47296 52.4381 8.88731 52.5648 8.60424C52.7566 8.17518 53.2002 7.32954 53.5178 6.98298C53.5505 6.94709 53.6399 6.89389 53.69 6.89157V6.89111C53.6908 6.89111 53.6915 6.89136 53.6919 6.89136C53.6927 6.89136 53.6932 6.89111 53.6937 6.89111V6.89157C53.7438 6.89389 53.8335 6.94713 53.8662 6.98298C54.1839 7.32954 54.6288 8.17439 54.8193 8.60424C54.9446 8.88785 55.1577 9.4739 55.2251 9.77688C55.2695 9.97798 55.2995 10.3934 55.2856 10.5989C55.2599 10.985 55.0503 11.751 54.9367 12.1208C54.7441 12.748 54.1123 14.3928 53.6916 14.3928C53.264 14.3928 52.6393 12.748 52.4475 12.1208C52.3342 11.7509 52.1228 10.985 52.0983 10.5989C52.085 10.3934 52.1171 9.97857 52.1587 9.77688Z" fill="#C9635F"/>
<path d="M60.9357 26.624C60.9357 26.624 61.1969 26.5545 61.8175 26.4326C64.1223 25.9802 64.2298 25.7352 65.6426 26.034C67.0558 26.333 69.4686 28.1597 69.9506 30.6503C69.9506 30.6503 70.1923 31.3479 69.7441 31.3809C69.296 31.4144 66.1189 28.0982 62.8857 28.6908C61.2219 28.9959 60.7139 28.6677 60.7139 28.6677C60.7139 28.6677 61.6654 27.8957 61.6331 27.1413C61.6239 26.9255 61.3838 26.6907 60.9357 26.624Z" fill="#C9635F"/>
<path d="M53.9578 26.8819C53.8507 26.8195 54.9841 29.0112 55.029 29.8302C55.0979 31.0755 55.5804 34.5019 56.729 33.9486C57.2121 33.716 58.7698 32.5364 59.1532 30.1347C59.3255 29.0554 59.7143 29.0112 60.03 28.7367C62.2708 26.7867 60.3034 26.9006 60.2442 26.9049C58.7254 27.0144 57.5778 28.0296 57.5778 28.0296C56.5436 28.3619 55.7036 28.1268 55.7036 28.1268C55.6622 28.0158 55.5898 27.826 55.5341 27.6864C55.3412 27.2042 55.0408 27.1477 54.7375 27.0796C54.3171 26.9852 54.0101 26.912 53.9578 26.8819Z" fill="#C9635F"/>
<path d="M53.8069 26.2074C53.7613 25.6165 54.1412 24.1044 54.9043 23.0126C56.0125 21.4271 57.9511 19.9976 60.707 17.9425C61.5164 17.3389 63.1336 16.2991 63.2298 14.7861C63.3101 13.5213 62.3779 11.1781 58.7958 12.3371C58.2322 12.5195 58.3561 13.22 57.6602 13.8431C57.1178 14.3288 56.2427 14.5469 55.6529 14.7617C55.2927 14.8928 54.359 15.1223 53.9987 15.1306C53.8891 15.133 53.6873 15.1019 53.6627 14.9829C53.6383 14.864 54.4438 14.4417 54.7765 14.1465C55.2991 13.6832 54.8644 13.2988 55.4102 12.6651C56.0054 11.9734 56.7934 11.6172 57.2448 11.4622C58.0094 11.1998 59.0575 10.1704 61.8539 10.2451C64.3111 10.3106 66.2458 11.8072 65.7995 14.8966C65.2847 18.4569 61.3249 19.3599 58.1375 21.9569C57.3627 22.5885 56.8561 23.1966 56.4211 23.8032C56.6695 23.5511 56.9565 23.2837 57.1469 23.1244C57.5117 22.8196 58.1779 22.3196 58.6679 21.9849C64.1228 18.2572 68.792 21.2581 69.2156 22.0654C69.2312 22.0845 69.2431 22.1036 69.2505 22.1228C69.3028 22.2543 69.3001 22.3589 69.2548 22.4431C69.0946 22.8037 68.1516 22.737 66.8499 23.287C66.5391 23.4184 63.5389 25.1865 63.2011 25.3601C62.0944 25.928 60.237 26.4742 60.0164 26.5106C59.3086 26.6276 58.3864 26.7642 57.3377 27.5962C57.1429 27.7511 56.327 27.8619 56.0629 27.7511C56.0629 27.7511 55.9084 27.3564 55.7112 27.12C55.5404 26.9155 55.2125 26.8059 55.0246 26.7588C54.9299 26.7349 54.3155 26.6045 54.177 26.5584C53.9891 26.4957 53.8205 26.383 53.8069 26.2074Z" fill="#C9635F"/>
<path d="M53.4259 26.8819C53.5335 26.8195 52.3996 29.0112 52.3551 29.8302C52.2858 31.0755 51.8033 34.5019 50.655 33.9486C50.172 33.716 48.6142 32.5364 48.2308 30.1347C48.0586 29.0554 47.6695 29.0112 47.3542 28.7367C45.1129 26.7867 47.0808 26.9006 47.1398 26.9049C48.6584 27.0144 49.8064 28.0296 49.8064 28.0296C50.8404 28.3619 51.6801 28.1268 51.6801 28.1268C51.7218 28.0158 51.7944 27.826 51.8499 27.6864C52.043 27.2042 52.3434 27.1477 52.6467 27.0796C53.0671 26.9852 53.3739 26.912 53.4259 26.8819Z" fill="#C9635F"/>
<path d="M53.5774 26.2073C53.623 25.6165 53.2431 24.1044 52.48 23.0126C51.3716 21.4271 49.4334 19.9976 46.6774 17.9425C45.8679 17.3389 44.2504 16.2991 44.1543 14.7861C44.0739 13.5213 45.0061 11.1781 48.5885 12.3371C49.1521 12.5195 49.0279 13.22 49.7241 13.8431C50.2665 14.3288 51.1411 14.5469 51.731 14.7617C52.0913 14.8928 53.025 15.1223 53.3856 15.1306C53.4949 15.133 53.6967 15.1019 53.7212 14.9829C53.7458 14.864 52.9402 14.4417 52.6074 14.1465C52.0852 13.6832 52.5196 13.2988 51.9738 12.6651C51.3786 11.9734 50.5906 11.6172 50.1391 11.4622C49.3745 11.1998 48.3265 10.1704 45.5304 10.2451C43.0729 10.3106 41.1382 11.8072 41.5846 14.8966C42.0993 18.4569 46.0594 19.3598 49.2463 21.9568C50.0216 22.5885 50.5279 23.1964 50.9632 23.8031C50.7148 23.5509 50.4278 23.2837 50.237 23.1243C49.8724 22.8196 49.2064 22.3196 48.7162 21.9847C43.2615 18.2572 38.5923 21.2581 38.1683 22.0654C38.1529 22.0845 38.1412 22.1036 38.1338 22.1229C38.081 22.2543 38.084 22.3591 38.1291 22.4432C38.2897 22.8038 39.2326 22.737 40.5344 23.287C40.8448 23.4185 43.8449 25.1867 44.183 25.3601C45.2894 25.928 47.1471 26.4742 47.3679 26.5106C48.0755 26.6276 48.9978 26.7642 50.0462 27.5962C50.2409 27.7511 51.0568 27.8619 51.3209 27.7511C51.3209 27.7511 51.4757 27.3566 51.673 27.12C51.8438 26.9155 52.1714 26.806 52.3593 26.7588C52.4543 26.7349 53.0684 26.6045 53.2072 26.5584C53.3948 26.4957 53.564 26.383 53.5774 26.2073Z" fill="#C9635F"/>
<path d="M46.4488 26.624C46.4488 26.624 46.1875 26.5545 45.5667 26.4326C43.2619 25.9802 43.1543 25.7352 41.7418 26.034C40.3286 26.333 37.916 28.1597 37.434 30.6503C37.434 30.6503 37.1918 31.3479 37.64 31.3809C38.0883 31.4144 41.2655 28.0982 44.4984 28.6908C46.1622 28.9959 46.6703 28.6677 46.6703 28.6677C46.6703 28.6677 45.7191 27.8957 45.7515 27.1413C45.7607 26.9255 46.0006 26.6907 46.4488 26.624Z" fill="#C9635F"/>
</g>
<defs>
<clipPath id="clip0_45_493">
<rect width="141" height="34.3368" fill="white"/>
</clipPath>
</defs>
</svg>
